<svg width="817" height="97" viewBox="0 0 817 97" fill="none" xmlns="http://www.w3.org/2000/svg">
<g clip-path="url(#clip0_2531_380)">
<path d="M0 46.821C0 21.446 18.3201 2.19531 43.4908 2.19531C65.7666 2.19531 80.8381 15.7169 86.1198 33.5409H70.6947C67.4461 22.5436 57.9215 14.0487 43.1151 14.0487C26.0105 14.0487 13.7235 26.8459 13.7235 47.0625C13.7235 66.0937 25.4138 80.4495 44.6842 80.4495C60.7059 80.4495 70.8273 70.6375 73.2361 55.9305H43.3582V45.3942H87.2026C87.6888 72.9204 70.6947 91.6882 44.198 91.6882C19.2703 91.6662 0 72.8984 0 46.821Z" fill="#FFFAF0"/>
<path d="M135.136 80.076C131.158 87.1441 124.064 91.0733 114.65 91.0733C101.39 91.0733 92.7275 83.5442 92.7275 71.9323C92.7275 59.4863 102.716 53.0328 121.766 53.0328C125.5 53.0328 128.506 53.1425 133.699 53.7571V49.1036C133.699 40.016 128.749 34.8576 120.329 34.8576C111.423 34.8576 105.987 40.1258 105.633 48.9719H94.5618C95.1584 34.7259 105.412 25.2871 120.329 25.2871C136.108 25.2871 145.257 34.1332 145.257 49.2133V89.8879H135.136V80.076ZM117.081 82.4686C127.312 82.4686 133.699 76.1249 133.699 66.4446V61.3082C128.992 60.7155 125.633 60.5838 122.495 60.5838C110.34 60.5838 104.307 64.1617 104.307 71.5811C104.307 78.1663 109.258 82.4686 117.081 82.4686Z" fill="#FFFAF0"/>
<path d="M193.3 88.8123C189.565 90.4805 186.317 91.0952 182.449 91.0952C170.648 91.0952 162.45 84.7514 162.45 70.7469V36.7673H148.351V26.4724H162.45V7.68262H174.626V26.4724H193.897V36.7673H174.626V68.003C174.626 76.7394 178.847 79.8564 185.344 79.8564C188.239 79.8564 190.759 79.3735 193.3 78.1882V88.8342V88.8123Z" fill="#FFFAF0"/>
<path d="M214.028 89.8885H201.874V3.97363H214.028V36.6362C218.249 29.8096 224.746 25.2658 233.542 25.2658C246.669 25.2658 255.354 33.6509 255.354 48.8408V89.8885H243.177V52.9236C243.177 42.0361 238.359 35.9338 229.321 35.9338C221.012 35.9338 214.028 42.8702 214.028 54.1309V89.9105V89.8885Z" fill="#FFFAF0"/>
<path d="M263.287 57.8185C263.287 39.0287 276.171 25.2656 293.762 25.2656C312.789 25.2656 325.452 40.5872 323.264 61.155H275.685C276.657 74.0839 283.154 81.613 293.872 81.613C302.911 81.613 309.165 76.696 311.22 68.4426H323.264C320.126 82.5569 309.165 91.0518 294.115 91.0518C275.685 91.0518 263.287 77.7716 263.287 57.7965V57.8185ZM275.795 53.143H310.358C309.761 41.4213 303.375 34.3532 293.496 34.3532C283.618 34.3532 277.121 41.2896 275.795 53.143Z" fill="#FFFAF0"/>
<path d="M344.7 89.8878H332.546V26.4723H343.861V39.8622C348.325 31.1258 357.96 25.6162 368.435 25.6162V38.172C354.711 37.4476 344.7 43.4402 344.7 57.4447V89.8658V89.8878Z" fill="#FFFAF0"/>
<path d="M512.166 46.821C512.166 21.5778 530.84 2.19531 554.928 2.19531C576.607 2.19531 593.954 16.5511 597.203 37.7334H583.104C580.695 23.8606 569.38 14.0487 555.038 14.0487C537.933 14.0487 525.89 27.8117 525.89 46.821C525.89 65.8303 537.933 79.8348 555.038 79.8348C569.38 79.8348 580.695 69.9131 583.104 56.0183H597.203C593.954 77.3105 576.607 91.6662 554.928 91.6662C530.84 91.6662 512.166 72.174 512.166 46.7991V46.821Z" fill="#FFFAF0"/>
<path d="M612.363 19.7779C607.192 19.7779 603.457 16.3097 603.457 11.7659C603.457 7.22211 607.192 3.75391 612.363 3.75391C617.534 3.75391 621.158 7.11236 621.158 11.7659C621.158 16.4194 617.534 19.7779 612.363 19.7779ZM606.352 89.8883V26.4728H618.506V89.8883H606.352Z" fill="#FFFAF0"/>
<path d="M667.765 88.8123C664.03 90.4805 660.782 91.0952 656.914 91.0952C645.113 91.0952 636.915 84.7514 636.915 70.7469V36.7673H622.815V26.4724H636.915V7.68262H649.069V26.4724H668.339V36.7673H649.069V68.003C649.069 76.7394 653.29 79.8564 659.787 79.8564C662.682 79.8564 665.201 79.3735 667.743 78.1882V88.8342L667.765 88.8123Z" fill="#FFFAF0"/>
<path d="M682.35 19.7779C677.179 19.7779 673.444 16.3097 673.444 11.7659C673.444 7.22211 677.179 3.75391 682.35 3.75391C687.521 3.75391 691.146 7.11236 691.146 11.7659C691.146 16.4194 687.521 19.7779 682.35 19.7779ZM676.317 89.8883V26.4728H688.472V89.8883H676.317Z" fill="#FFFAF0"/>
<path d="M697.156 57.8185C697.156 39.0287 710.04 25.2656 727.631 25.2656C746.658 25.2656 759.321 40.5872 757.133 61.155H709.554C710.526 74.0839 717.023 81.613 727.741 81.613C736.78 81.613 743.034 76.696 745.089 68.4426H757.133C753.995 82.5569 743.034 91.0518 727.984 91.0518C709.554 91.0518 697.156 77.7716 697.156 57.7965V57.8185ZM709.686 53.143H744.249C743.653 41.4213 737.266 34.3532 727.388 34.3532C717.509 34.3532 711.012 41.2896 709.686 53.143Z" fill="#FFFAF0"/>
<path d="M790.26 91.0733C773.399 91.0733 763.41 82.8198 762.194 69.1884H773.885C774.371 77.0907 780.757 81.9857 790.503 81.9857C799.055 81.9857 804.713 79.0004 804.713 73.0079C804.713 67.7397 801.464 65.4788 793.509 63.9203L783.144 62.0106C771.343 59.7277 764.714 53.7571 764.714 44.1866C764.714 33.0576 774.481 25.2871 789.288 25.2871C804.094 25.2871 814.945 33.4308 816.028 46.4695H804.337C803.608 38.8087 797.951 34.3966 789.398 34.3966C781.686 34.3966 776.515 37.6234 776.515 43.133C776.515 48.2695 779.763 50.6621 787.476 52.1108L798.326 54.1522C810.967 56.4351 817 61.9228 817 71.0103C817 83.4564 807.254 91.1172 790.26 91.1172V91.0733Z" fill="#FFFAF0"/>
<path d="M440.919 96.9781C467.88 96.9781 489.736 75.2688 489.736 48.489C489.736 21.7093 467.88 0 440.919 0C413.959 0 392.103 21.7093 392.103 48.489C392.103 75.2688 413.959 96.9781 440.919 96.9781Z" fill="#BDD8E7"/>
</g>
<defs>
<clipPath id="clip0_2531_380">
<rect width="817" height="97" fill="white"/>
</clipPath>
</defs>
</svg>
