<svg width="359" height="320" viewBox="0 0 359 320" fill="none" xmlns="http://www.w3.org/2000/svg">
<path d="M219.745 58.3884C233.955 58.3884 245.474 46.8887 245.474 32.7031C245.474 18.5174 233.955 7.0177 219.745 7.0177C205.536 7.0177 194.017 18.5174 194.017 32.7031C194.017 46.8887 205.536 58.3884 219.745 58.3884Z" fill="#FFFAF0"/>
<path d="M25.7282 51.3707C39.9375 51.3707 51.4564 39.871 51.4564 25.6854C51.4564 11.4997 39.9375 0 25.7282 0C11.5189 0 0 11.4997 0 25.6854C0 39.871 11.5189 51.3707 25.7282 51.3707Z" fill="#FFFAF0"/>
<path d="M198.164 319.383C212.374 319.383 223.893 307.884 223.893 293.698C223.893 279.512 212.374 268.013 198.164 268.013C183.955 268.013 172.436 279.512 172.436 293.698C172.436 307.884 183.955 319.383 198.164 319.383Z" fill="#FFFAF0"/>
<path d="M323.289 108.285C337.499 108.285 349.018 96.7848 349.018 82.5992C349.018 68.4136 337.499 56.9138 323.289 56.9138C309.08 56.9138 297.561 68.4136 297.561 82.5992C297.561 96.7848 309.08 108.285 323.289 108.285Z" fill="#FFFAF0"/>
<path d="M180.098 156.498C194.308 156.498 205.827 144.999 205.827 130.813C205.827 116.627 194.308 105.128 180.098 105.128C165.889 105.128 154.37 116.627 154.37 130.813C154.37 144.999 165.889 156.498 180.098 156.498Z" fill="#FFFAF0"/>
<path d="M58.6264 200.149C72.8357 200.149 84.3546 188.649 84.3546 174.463C84.3546 160.278 72.8357 148.778 58.6264 148.778C44.4171 148.778 32.8982 160.278 32.8982 174.463C32.8982 188.649 44.4171 200.149 58.6264 200.149Z" fill="#FFFAF0"/>
<path d="M333.272 247.591C347.481 247.591 359 236.091 359 221.905C359 207.72 347.481 196.22 333.272 196.22C319.063 196.22 307.544 207.72 307.544 221.905C307.544 236.091 319.063 247.591 333.272 247.591Z" fill="#FFFAF0"/>
</svg>
