<svg width="196" height="175" viewBox="0 0 196 175" fill="none" xmlns="http://www.w3.org/2000/svg">
<path d="M119.893 31.857C127.646 31.857 133.93 25.5827 133.93 17.843C133.93 10.1033 127.646 3.82898 119.893 3.82898C112.14 3.82898 105.856 10.1033 105.856 17.843C105.856 25.5827 112.14 31.857 119.893 31.857Z" fill="#12161D"/>
<path d="M14.0374 28.0281C21.79 28.0281 28.0748 21.7539 28.0748 14.0141C28.0748 6.27441 21.79 0.00012207 14.0374 0.00012207C6.28475 0.00012207 0 6.27441 0 14.0141C0 21.7539 6.28475 28.0281 14.0374 28.0281Z" fill="#12161D"/>
<path d="M108.118 174.257C115.871 174.257 122.156 167.982 122.156 160.243C122.156 152.503 115.871 146.229 108.118 146.229C100.366 146.229 94.0811 152.503 94.0811 160.243C94.0811 167.982 100.366 174.257 108.118 174.257Z" fill="#12161D"/>
<path d="M176.388 59.0804C184.14 59.0804 190.425 52.8061 190.425 45.0664C190.425 37.3267 184.14 31.0524 176.388 31.0524C168.635 31.0524 162.35 37.3267 162.35 45.0664C162.35 52.8061 168.635 59.0804 176.388 59.0804Z" fill="#12161D"/>
<path d="M98.2615 85.386C106.014 85.386 112.299 79.1118 112.299 71.372C112.299 63.6323 106.014 57.358 98.2615 57.358C90.5089 57.358 84.2241 63.6323 84.2241 71.372C84.2241 79.1118 90.5089 85.386 98.2615 85.386Z" fill="#12161D"/>
<path d="M31.9868 109.202C39.7395 109.202 46.0242 102.928 46.0242 95.1878C46.0242 87.4481 39.7395 81.1738 31.9868 81.1738C24.2342 81.1738 17.9495 87.4481 17.9495 95.1878C17.9495 102.928 24.2342 109.202 31.9868 109.202Z" fill="#12161D"/>
<path d="M181.834 135.086C189.587 135.086 195.872 128.812 195.872 121.072C195.872 113.333 189.587 107.058 181.834 107.058C174.082 107.058 167.797 113.333 167.797 121.072C167.797 128.812 174.082 135.086 181.834 135.086Z" fill="#12161D"/>
</svg>
