<svg width="524" height="118" viewBox="0 0 524 118" fill="none" xmlns="http://www.w3.org/2000/svg">
<g clip-path="url(#clip0_2531_660)">
<path d="M0 56.5916C0 30.3492 18.8453 10.4404 44.7376 10.4404C67.652 10.4404 83.1556 24.4243 88.5887 42.8575H72.7214C69.3797 31.4843 59.582 22.699 44.3512 22.699C26.7562 22.699 14.1169 35.9337 14.1169 56.8414C14.1169 76.5232 26.1424 91.3696 45.9652 91.3696C62.4463 91.3696 72.8578 81.2223 75.3356 66.0126H44.6012V55.1161H89.7026C90.2027 83.5832 72.7214 102.993 45.4651 102.993C19.8228 102.993 0 83.5605 0 56.5916Z" fill="#FFFAF0"/>
<path d="M139.009 90.9836C134.918 98.2933 127.62 102.357 117.936 102.357C104.297 102.357 95.3857 94.5703 95.3857 82.5615C95.3857 69.69 105.661 63.0159 125.256 63.0159C129.098 63.0159 132.19 63.1294 137.532 63.765V58.9524C137.532 49.5542 132.463 44.2194 123.779 44.2194C114.617 44.2194 109.025 49.6677 108.662 58.8162H97.2725C97.8863 44.0832 108.434 34.3218 123.779 34.3218C140.01 34.3218 149.421 43.4703 149.421 59.0659V101.131H139.009V90.9836ZM120.437 93.458C130.962 93.458 137.532 86.8974 137.532 76.8862V71.5742C132.69 70.9613 129.234 70.8251 126.006 70.8251C113.504 70.8251 107.298 74.5253 107.298 82.1983C107.298 89.0086 112.367 93.458 120.437 93.458Z" fill="#FFFAF0"/>
<path d="M198.841 100.018C195 101.743 191.658 102.379 187.68 102.379C175.541 102.379 167.107 95.8181 167.107 81.3348V46.1936H152.604V35.5468H167.107V16.1147H179.61V35.5468H199.433V46.1936H179.61V78.4972C179.61 87.5322 183.952 90.7558 190.635 90.7558C193.613 90.7558 196.205 90.2564 198.819 89.0305V100.04L198.841 100.018Z" fill="#FFFAF0"/>
<path d="M220.164 101.133H207.661V12.2808H220.164V46.0599C224.506 38.9999 231.189 34.3008 240.237 34.3008C253.74 34.3008 262.674 42.9726 262.674 58.6817V101.133H250.171V62.9041C250.171 51.6444 245.215 45.3335 235.918 45.3335C227.37 45.3335 220.187 52.507 220.187 64.1526V101.155L220.164 101.133Z" fill="#FFFAF0"/>
<path d="M270.835 67.9664C270.835 48.5343 284.088 34.3008 302.183 34.3008C321.756 34.3008 334.759 50.1461 332.531 71.417H283.588C284.588 84.7879 291.271 92.5743 302.297 92.5743C311.594 92.5743 318.028 87.4893 320.142 78.9537H332.531C329.303 93.5505 318.028 102.336 302.547 102.336C283.588 102.336 270.835 88.6017 270.835 67.9437V67.9664ZM283.702 63.1538H319.255C318.641 51.0314 312.072 43.7217 301.91 43.7217C291.749 43.7217 285.066 50.8952 283.702 63.1538Z" fill="#FFFAF0"/>
<path d="M354.581 101.133H342.078V35.5494H353.717V49.397C358.309 40.362 368.221 34.6641 378.996 34.6641V47.6491C364.879 46.8999 354.581 53.0973 354.581 67.5806V101.11V101.133Z" fill="#FFFAF0"/>
<path d="M464.765 0C432.144 0 405.684 26.424 405.684 59C405.684 91.576 432.144 118 464.765 118C497.387 118 523.847 91.576 523.847 59C523.847 26.424 497.409 0 464.765 0ZM464.22 80.6568H433.94V75.5945L447.08 62.1327C452.081 57.0023 454.195 54.3236 454.195 50.5325C454.195 47.0139 451.831 44.6302 448.034 44.6302C443.874 44.6302 441.305 47.2636 441.305 51.486H432.644C432.644 42.8369 439.191 36.6849 448.489 36.6849C457.15 36.6849 463.492 42.1331 463.492 49.4429C463.492 54.6868 461.56 58.0239 453.99 65.6514L447.443 72.6887H464.174V80.6341L464.22 80.6568ZM498.16 42.5417L482.133 80.6568H472.585L488.294 45.2886H467.698V37.3432H498.16V42.519V42.5417Z" fill="#FFFAF0"/>
</g>
<defs>
<clipPath id="clip0_2531_660">
<rect width="523.849" height="118" fill="white"/>
</clipPath>
</defs>
</svg>
