<svg width="460" height="55" viewBox="0 0 460 55" fill="none" xmlns="http://www.w3.org/2000/svg">
<g clip-path="url(#clip0_2531_2354)">
<path d="M0 26.5479C0 12.16 10.3148 1.24463 24.4869 1.24463C37.0289 1.24463 45.5147 8.91152 48.4885 19.0179H39.8036C37.9746 12.7823 32.6118 7.96561 24.2754 7.96561C14.6448 7.96561 7.72681 15.2218 7.72681 26.6848C7.72681 37.4757 14.3089 45.6155 25.1588 45.6155C34.1796 45.6155 39.8783 40.0521 41.2345 31.7131H24.4122V25.7389H49.0982C49.3719 41.3465 39.8036 51.988 24.885 51.988C10.8499 51.9756 0 41.334 0 26.5479Z" fill="#12161D"/>
<path d="M76.086 45.404C73.8463 49.4117 69.8523 51.6396 64.5518 51.6396C57.0863 51.6396 52.2088 47.3705 52.2088 40.7864C52.2088 33.7294 57.8328 30.0702 68.5583 30.0702C70.6611 30.0702 72.3532 30.1324 75.2772 30.4809V27.8423C75.2772 22.6896 72.4901 19.7647 67.7495 19.7647C62.7352 19.7647 59.6743 22.7518 59.4752 27.7676H53.2415C53.5775 19.69 59.3508 14.3381 67.7495 14.3381C76.6335 14.3381 81.7847 19.354 81.7847 27.9046V50.9675H76.086V45.404ZM65.9205 46.7606C71.6813 46.7606 75.2772 43.1637 75.2772 37.6749V34.7624C72.627 34.4264 70.7357 34.3517 68.9689 34.3517C62.1255 34.3517 58.7287 36.3805 58.7287 40.5873C58.7287 44.3212 61.5158 46.7606 65.9205 46.7606Z" fill="#12161D"/>
<path d="M108.835 50.3576C106.732 51.3035 104.903 51.652 102.725 51.652C96.0811 51.652 91.465 48.055 91.465 40.1143V20.8475H83.5266V15.0102H91.465V4.3562H98.3208V15.0102H109.171V20.8475H98.3208V38.5585C98.3208 43.5121 100.697 45.2795 104.355 45.2795C105.985 45.2795 107.404 45.0057 108.835 44.3336V50.37V50.3576Z" fill="#12161D"/>
<path d="M120.506 50.9674H113.662V2.25281H120.506V20.7728C122.882 16.9021 126.54 14.3257 131.493 14.3257C138.883 14.3257 143.773 19.0801 143.773 27.693V50.9674H136.917V30.008C136.917 23.8346 134.205 20.3746 129.116 20.3746C124.438 20.3746 120.506 24.3076 120.506 30.6925V50.9799V50.9674Z" fill="#12161D"/>
<path d="M148.24 32.7835C148.24 22.1295 155.494 14.3257 165.398 14.3257C176.111 14.3257 183.241 23.0132 182.009 34.6753H155.22C155.768 42.0062 159.426 46.2752 165.461 46.2752C170.55 46.2752 174.071 43.4873 175.228 38.8075H182.009C180.242 46.8104 174.071 51.6271 165.597 51.6271C155.22 51.6271 148.24 44.0971 148.24 32.771V32.7835ZM155.283 30.1324H174.743C174.407 23.4861 170.811 19.4784 165.249 19.4784C159.687 19.4784 156.029 23.4114 155.283 30.1324Z" fill="#12161D"/>
<path d="M194.078 50.9674H187.235V15.0102H193.606V22.6024C196.119 17.6488 201.544 14.5248 207.442 14.5248V21.644C199.715 21.2333 194.078 24.6311 194.078 32.5719V50.955V50.9674Z" fill="#12161D"/>
<path d="M288.368 26.5479C288.368 12.2347 298.882 1.24463 312.444 1.24463C324.65 1.24463 334.418 9.38448 336.247 21.3951H328.308C326.952 13.5291 320.582 7.96561 312.506 7.96561C302.876 7.96561 296.095 15.7694 296.095 26.5479C296.095 37.3263 302.876 45.267 312.506 45.267C320.582 45.267 326.952 39.6413 328.308 31.7628H336.247C334.418 43.8357 324.65 51.9756 312.444 51.9756C298.882 51.9756 288.368 40.9233 288.368 26.5354V26.5479Z" fill="#12161D"/>
<path d="M344.782 11.2141C341.871 11.2141 339.768 9.24755 339.768 6.67118C339.768 4.0948 341.871 2.1283 344.782 2.1283C347.694 2.1283 349.734 4.03257 349.734 6.67118C349.734 9.30978 347.694 11.2141 344.782 11.2141ZM341.398 50.9674V15.0102H348.241V50.9674H341.398Z" fill="#12161D"/>
<path d="M375.976 50.3576C373.873 51.3035 372.044 51.652 369.866 51.652C363.222 51.652 358.606 48.055 358.606 40.1143V20.8475H350.668V15.0102H358.606V4.3562H365.449V15.0102H376.299V20.8475H365.449V38.5585C365.449 43.5121 367.826 45.2795 371.484 45.2795C373.114 45.2795 374.532 45.0057 375.963 44.3336V50.37L375.976 50.3576Z" fill="#12161D"/>
<path d="M384.188 11.2141C381.276 11.2141 379.173 9.24755 379.173 6.67118C379.173 4.0948 381.276 2.1283 384.188 2.1283C387.099 2.1283 389.14 4.03257 389.14 6.67118C389.14 9.30978 387.099 11.2141 384.188 11.2141ZM380.791 50.9674V15.0102H387.634V50.9674H380.791Z" fill="#12161D"/>
<path d="M392.524 32.7835C392.524 22.1295 399.778 14.3257 409.682 14.3257C420.395 14.3257 427.525 23.0132 426.293 34.6753H399.504C400.052 42.0062 403.71 46.2752 409.745 46.2752C414.834 46.2752 418.355 43.4873 419.512 38.8075H426.293C424.526 46.8104 418.355 51.6271 409.882 51.6271C399.504 51.6271 392.524 44.0971 392.524 32.771V32.7835ZM399.579 30.1324H419.039C418.703 23.4861 415.107 19.4784 409.546 19.4784C403.984 19.4784 400.326 23.4114 399.579 30.1324Z" fill="#12161D"/>
<path d="M444.945 51.6396C435.451 51.6396 429.827 46.9598 429.143 39.2306H435.725C435.998 43.7113 439.594 46.4868 445.081 46.4868C449.897 46.4868 453.082 44.7941 453.082 41.3963C453.082 38.4092 451.253 37.1272 446.774 36.2435L440.938 35.1607C434.294 33.8663 430.561 30.4809 430.561 25.0544C430.561 18.7441 436.061 14.3381 444.397 14.3381C452.734 14.3381 458.843 18.9557 459.453 26.3488H452.87C452.46 22.005 449.275 19.5033 444.459 19.5033C440.117 19.5033 437.205 21.3329 437.205 24.4569C437.205 27.3694 439.034 28.726 443.377 29.5475L449.486 30.705C456.603 31.9994 460 35.1109 460 40.2637C460 47.3207 454.513 51.6645 444.945 51.6645V51.6396Z" fill="#12161D"/>
<path d="M248.253 54.9876C263.433 54.9876 275.739 42.6782 275.739 27.4938C275.739 12.3094 263.433 0 248.253 0C233.073 0 220.768 12.3094 220.768 27.4938C220.768 42.6782 233.073 54.9876 248.253 54.9876Z" fill="#12161D"/>
</g>
<defs>
<clipPath id="clip0_2531_2354">
<rect width="460" height="55" fill="white"/>
</clipPath>
</defs>
</svg>
