<svg width="285" height="34" viewBox="0 0 285 34" fill="none" xmlns="http://www.w3.org/2000/svg">
<g clip-path="url(#clip0_2531_232)">
<path d="M0 16.4115C0 7.51721 6.39072 0.769531 15.1712 0.769531C22.9418 0.769531 28.1993 5.50907 30.0418 11.7566H24.6609C23.5277 7.90191 20.2052 4.92432 15.0402 4.92432C9.07344 4.92432 4.78726 9.40995 4.78726 16.4962C4.78726 23.1669 8.86529 28.1988 15.5875 28.1988C21.1765 28.1988 24.7072 24.7596 25.5475 19.6046H15.125V15.9114H30.4195C30.5891 25.5598 24.6609 32.1382 15.4179 32.1382C6.72221 32.1305 0 25.5521 0 16.4115Z" fill="#12161D"/>
<path d="M47.1403 28.0676C45.7527 30.5451 43.2781 31.9223 39.9941 31.9223C35.3687 31.9223 32.3468 29.2833 32.3468 25.2131C32.3468 20.8506 35.8312 18.5886 42.4764 18.5886C43.7792 18.5886 44.8276 18.627 46.6392 18.8425V17.2113C46.6392 14.026 44.9124 12.2179 41.9753 12.2179C38.8686 12.2179 36.9722 14.0645 36.8488 17.1652H32.9866C33.1948 12.1717 36.7717 8.86328 41.9753 8.86328C47.4795 8.86328 50.671 11.964 50.671 17.2498V31.5069H47.1403V28.0676ZM40.8421 28.9063C44.4113 28.9063 46.6392 26.6827 46.6392 23.2896V21.4892C44.9972 21.2815 43.8254 21.2353 42.7308 21.2353C38.4908 21.2353 36.3863 22.4894 36.3863 25.09C36.3863 27.3982 38.1131 28.9063 40.8421 28.9063Z" fill="#12161D"/>
<path d="M67.4303 31.1306C66.1274 31.7153 64.9942 31.9307 63.6452 31.9307C59.5286 31.9307 56.6686 29.7072 56.6686 24.7984V12.888H51.7502V9.27947H56.6686V2.69336H60.9162V9.27947H67.6384V12.888H60.9162V23.8366C60.9162 26.8988 62.3886 27.9914 64.655 27.9914C65.6649 27.9914 66.5437 27.8221 67.4303 27.4066V31.1383V31.1306Z" fill="#12161D"/>
<path d="M74.6612 31.5071H70.4213V1.39258H74.6612V12.8413C76.1336 10.4485 78.4 8.8558 81.4682 8.8558C86.0473 8.8558 89.0769 11.7949 89.0769 17.1192V31.5071H84.8293V18.5503C84.8293 14.7341 83.1487 12.5951 79.9958 12.5951C77.0972 12.5951 74.6612 15.0264 74.6612 18.9735V31.5148V31.5071Z" fill="#12161D"/>
<path d="M91.8445 20.2667C91.8445 13.6806 96.3388 8.85645 102.475 8.85645C109.113 8.85645 113.53 14.2269 112.767 21.4362H96.1692C96.5084 25.968 98.7748 28.6071 102.514 28.6071C105.667 28.6071 107.848 26.8836 108.565 23.9906H112.767C111.672 28.9379 107.848 31.9155 102.598 31.9155C96.1692 31.9155 91.8445 27.2606 91.8445 20.259V20.2667ZM96.2078 18.6279H108.265C108.056 14.5193 105.829 12.0418 102.383 12.0418C98.9367 12.0418 96.6703 14.4731 96.2078 18.6279Z" fill="#12161D"/>
<path d="M120.244 31.5077H116.004V9.27956H119.951V13.9729C121.508 10.9107 124.87 8.97949 128.524 8.97949V13.3805C123.736 13.1266 120.244 15.2271 120.244 20.1359V31.5V31.5077Z" fill="#12161D"/>
<path d="M178.663 16.4115C178.663 7.56338 185.177 0.769531 193.58 0.769531C201.142 0.769531 207.194 5.80144 208.327 13.2262H203.408C202.568 8.36356 198.621 4.92432 193.618 4.92432C187.651 4.92432 183.45 9.74849 183.45 16.4115C183.45 23.0746 187.651 27.9834 193.618 27.9834C198.621 27.9834 202.568 24.5057 203.408 19.6353H208.327C207.194 27.0986 201.142 32.1305 193.58 32.1305C185.177 32.1305 178.663 25.2982 178.663 16.4038V16.4115Z" fill="#12161D"/>
<path d="M213.615 6.93209C211.811 6.93209 210.508 5.71643 210.508 4.12376C210.508 2.53109 211.811 1.31543 213.615 1.31543C215.419 1.31543 216.683 2.49262 216.683 4.12376C216.683 5.7549 215.419 6.93209 213.615 6.93209ZM211.518 31.5069V9.27877H215.758V31.5069H211.518Z" fill="#12161D"/>
<path d="M232.941 31.1306C231.639 31.7153 230.505 31.9307 229.156 31.9307C225.04 31.9307 222.18 29.7072 222.18 24.7984V12.888H217.261V9.27947H222.18V2.69336H226.42V9.27947H233.142V12.888H226.42V23.8366C226.42 26.8988 227.892 27.9914 230.159 27.9914C231.168 27.9914 232.047 27.8221 232.934 27.4066V31.1383L232.941 31.1306Z" fill="#12161D"/>
<path d="M238.029 6.93209C236.225 6.93209 234.923 5.71643 234.923 4.12376C234.923 2.53109 236.225 1.31543 238.029 1.31543C239.833 1.31543 241.098 2.49262 241.098 4.12376C241.098 5.7549 239.833 6.93209 238.029 6.93209ZM235.925 31.5069V9.27877H240.165V31.5069H235.925Z" fill="#12161D"/>
<path d="M243.194 20.2667C243.194 13.6806 247.689 8.85645 253.825 8.85645C260.462 8.85645 264.88 14.2269 264.116 21.4362H247.519C247.858 25.968 250.125 28.6071 253.864 28.6071C257.017 28.6071 259.198 26.8836 259.915 23.9906H264.116C263.022 28.9379 259.198 31.9155 253.948 31.9155C247.519 31.9155 243.194 27.2606 243.194 20.259V20.2667ZM247.565 18.6279H259.622C259.414 14.5193 257.186 12.0418 253.74 12.0418C250.294 12.0418 248.028 14.4731 247.565 18.6279Z" fill="#12161D"/>
<path d="M275.672 31.9223C269.79 31.9223 266.306 29.0294 265.882 24.2514H269.96C270.129 27.0212 272.357 28.737 275.757 28.737C278.74 28.737 280.714 27.6906 280.714 25.5901C280.714 23.7436 279.581 22.9511 276.805 22.4048L273.19 21.7354C269.073 20.9352 266.761 18.8425 266.761 15.4879C266.761 11.587 270.168 8.86328 275.333 8.86328C280.498 8.86328 284.283 11.7178 284.661 16.288H280.583C280.328 13.6028 278.355 12.0563 275.372 12.0563C272.681 12.0563 270.877 13.1873 270.877 15.1185C270.877 16.919 272.01 17.7576 274.701 18.2654L278.486 18.981C282.896 19.7811 285 21.7046 285 24.89C285 29.2525 281.6 31.9377 275.672 31.9377V31.9223Z" fill="#12161D"/>
<path d="M153.809 33.9923C163.214 33.9923 170.838 26.3829 170.838 16.9962C170.838 7.60944 163.214 0 153.809 0C144.404 0 136.78 7.60944 136.78 16.9962C136.78 26.3829 144.404 33.9923 153.809 33.9923Z" fill="#2A5ED8"/>
</g>
<defs>
<clipPath id="clip0_2531_232">
<rect width="285" height="34" fill="white"/>
</clipPath>
</defs>
</svg>
