<svg width="401" height="90" viewBox="0 0 401 90" fill="none" xmlns="http://www.w3.org/2000/svg">
<g clip-path="url(#clip0_2531_884)">
<path d="M0 43.1649C0 23.1495 14.4258 7.96484 34.2461 7.96484C51.7868 7.96484 63.6547 18.6305 67.8136 32.6897H55.6674C53.1094 24.0152 45.6093 17.3146 33.9503 17.3146C20.4816 17.3146 10.8063 27.4089 10.8063 43.3554C10.8063 58.3669 20.0117 69.6905 35.1858 69.6905C47.8019 69.6905 55.7718 61.951 57.6685 50.3504H34.1417V42.0395H68.6663C69.0491 63.7517 55.6674 78.5555 34.803 78.5555C15.1741 78.5555 0 63.7344 0 43.1649Z" fill="#12161D"/>
<path d="M106.41 69.3963C103.278 74.9715 97.6919 78.0708 90.2789 78.0708C79.838 78.0708 73.0166 72.132 73.0166 62.9727C73.0166 53.1554 80.8821 48.065 95.8822 48.065C98.823 48.065 101.19 48.1516 105.279 48.6364V44.9658C105.279 37.7976 101.398 33.7287 94.7511 33.7287C87.7383 33.7287 83.4575 37.8842 83.1791 44.8619H74.4609C74.9308 33.6249 83.0051 26.1797 94.7511 26.1797C107.176 26.1797 114.38 33.1574 114.38 45.0523V77.1358H106.41V69.3963ZM92.193 71.2836C100.25 71.2836 105.279 66.2797 105.279 58.6441V54.5925C101.572 54.1251 98.9274 54.0212 96.4564 54.0212C86.8856 54.0212 82.135 56.8434 82.135 62.6957C82.135 67.89 86.0155 71.2836 92.193 71.2836Z" fill="#12161D"/>
<path d="M152.211 76.2873C149.27 77.6032 146.712 78.088 143.667 78.088C134.375 78.088 127.919 73.0842 127.919 62.0376V35.235H116.816V27.1145H127.919V12.2935H137.489V27.1145H152.663V35.235H137.489V59.8733C137.489 66.7644 140.813 69.2231 145.929 69.2231C148.209 69.2231 150.192 68.8421 152.194 67.9072V76.3046L152.211 76.2873Z" fill="#12161D"/>
<path d="M168.533 77.1356H158.962V9.36719H168.533V35.1309C171.857 29.7462 176.973 26.1621 183.899 26.1621C194.235 26.1621 201.074 32.7762 201.074 44.7577V77.1356H191.503V47.9782C191.503 39.3903 187.71 34.5769 180.592 34.5769C174.049 34.5769 168.551 40.0482 168.551 48.9305V77.1529L168.533 77.1356Z" fill="#12161D"/>
<path d="M207.321 51.8393C207.321 37.0182 217.466 26.1621 231.318 26.1621C246.301 26.1621 256.254 38.2475 254.549 54.4711H217.084C217.849 64.6692 222.965 70.6081 231.405 70.6081C238.522 70.6081 243.447 66.7296 245.065 60.2194H254.549C252.078 71.3526 243.447 78.0532 231.596 78.0532C217.084 78.0532 207.321 67.578 207.321 51.822V51.8393ZM217.171 48.1687H244.386C243.917 38.9228 238.888 33.3476 231.109 33.3476C223.331 33.3476 218.215 38.8189 217.171 48.1687Z" fill="#12161D"/>
<path d="M271.428 77.1359H261.857V27.1147H270.767V37.6765C274.282 30.7854 281.869 26.4395 290.117 26.4395V36.3433C279.311 35.7719 271.428 40.4987 271.428 51.5453V77.1186V77.1359Z" fill="#12161D"/>
<path d="M355.773 0C330.802 0 310.547 20.1539 310.547 45C310.547 69.8461 330.802 90 355.773 90C380.744 90 401 69.8461 401 45C401 20.1539 380.762 0 355.773 0ZM355.356 61.5179H332.177V57.6568L342.235 47.3894C346.063 43.4763 347.682 41.4332 347.682 38.5417C347.682 35.858 345.872 34.04 342.966 34.04C339.781 34.04 337.815 36.0485 337.815 39.269H331.185C331.185 32.6722 336.197 27.98 343.314 27.98C349.944 27.98 354.799 32.1354 354.799 37.7107C354.799 41.7103 353.32 44.2555 347.525 50.0731L342.513 55.4406H355.321V61.5006L355.356 61.5179ZM381.336 32.4471L369.068 61.5179H361.759L373.784 34.5421H358.018V28.4821H381.336V32.4298V32.4471Z" fill="#12161D"/>
</g>
<defs>
<clipPath id="clip0_2531_884">
<rect width="401" height="90" fill="white"/>
</clipPath>
</defs>
</svg>
