<svg width="521" height="116" viewBox="0 0 521 116" fill="none" xmlns="http://www.w3.org/2000/svg">
<g clip-path="url(#clip0_2531_925)">
<path d="M0 55.6346C0 29.837 18.7428 10.2656 44.4944 10.2656C67.2841 10.2656 82.7034 24.0124 88.107 42.1333H72.3259C69.0024 30.9528 59.258 22.3164 44.11 22.3164C26.6107 22.3164 14.0401 35.3268 14.0401 55.8801C14.0401 75.2283 26.0003 89.8232 45.7152 89.8232C62.1067 89.8232 72.4616 79.8478 74.926 64.8959H44.3587V54.1841H89.2148C89.7122 82.1687 72.3259 101.249 45.2178 101.249C19.715 101.249 0 82.1464 0 55.6346Z" fill="#2A5ED8"/>
<path d="M138.254 89.4436C134.184 96.6295 126.927 100.624 117.295 100.624C103.73 100.624 94.8672 92.9696 94.8672 81.1643C94.8672 68.5109 105.086 61.95 124.575 61.95C128.396 61.95 131.471 62.0615 136.784 62.6864V57.9553C136.784 48.7164 131.742 43.4721 123.106 43.4721C113.994 43.4721 108.433 48.828 108.071 57.8215H96.7437C97.3542 43.3382 107.845 33.7422 123.106 33.7422C139.249 33.7422 148.609 42.7356 148.609 58.0669V99.419H138.254V89.4436ZM119.782 91.8761C130.25 91.8761 136.784 85.4267 136.784 75.5852V70.3632C131.968 69.7607 128.532 69.6268 125.321 69.6268C112.887 69.6268 106.714 73.2643 106.714 80.8072C106.714 87.5021 111.756 91.8761 119.782 91.8761Z" fill="#2A5ED8"/>
<path d="M197.76 98.3257C193.939 100.022 190.616 100.647 186.659 100.647C174.586 100.647 166.198 94.1972 166.198 79.9594V45.4138H151.773V34.9475H166.198V15.8447H178.633V34.9475H198.348V45.4138H178.633V77.1699C178.633 86.0517 182.951 89.2206 189.598 89.2206C192.56 89.2206 195.137 88.7297 197.737 87.5246V98.348L197.76 98.3257Z" fill="#2A5ED8"/>
<path d="M218.967 99.4192H206.532V12.0732H218.967V45.2799C223.285 38.3395 229.932 33.72 238.931 33.72C252.361 33.72 261.246 42.2449 261.246 57.6877V99.4192H248.811V61.8385C248.811 50.7697 243.882 44.5657 234.635 44.5657C226.134 44.5657 218.99 51.6177 218.99 63.0659V99.4415L218.967 99.4192Z" fill="#2A5ED8"/>
<path d="M269.362 66.8153C269.362 47.7125 282.543 33.7202 300.54 33.7202C320.006 33.7202 332.939 49.297 330.723 70.2073H282.046C283.041 83.3516 289.688 91.0061 300.653 91.0061C309.9 91.0061 316.298 86.0072 318.401 77.6163H330.723C327.512 91.9657 316.298 100.602 300.902 100.602C282.046 100.602 269.362 87.1007 269.362 66.7929V66.8153ZM282.159 62.0842H317.519C316.909 50.1673 310.375 42.9815 300.269 42.9815C290.163 42.9815 283.515 50.0334 282.159 62.0842Z" fill="#2A5ED8"/>
<path d="M352.654 99.4192H340.219V34.9475H351.795V48.5604C356.362 39.6785 366.219 34.0771 376.936 34.0771V46.8421C362.896 46.1056 352.654 52.198 352.654 66.4357V99.3969V99.4192Z" fill="#2A5ED8"/>
<path d="M462.239 0C429.795 0 403.479 25.9761 403.479 58C403.479 90.0238 429.795 116 462.239 116C494.683 116 521 90.0238 521 58C521 25.9761 494.705 0 462.239 0ZM461.696 79.2897H431.581V74.3132L444.649 61.0796C449.623 56.0362 451.726 53.4028 451.726 49.676C451.726 46.217 449.375 43.8738 445.599 43.8738C441.461 43.8738 438.907 46.4625 438.907 50.6133H430.293C430.293 42.1108 436.804 36.0631 446.051 36.0631C454.665 36.0631 460.973 41.419 460.973 48.6048C460.973 53.7599 459.051 57.0404 451.522 64.5387L445.011 71.4567H461.651V79.2674L461.696 79.2897ZM495.452 41.8207L479.512 79.2897H470.017L485.639 44.521H465.156V36.7103H495.452V41.7984V41.8207Z" fill="#2A5ED8"/>
</g>
<defs>
<clipPath id="clip0_2531_925">
<rect width="521" height="116" fill="white"/>
</clipPath>
</defs>
</svg>
