<svg width="650" height="129" viewBox="0 0 650 129" fill="none" xmlns="http://www.w3.org/2000/svg">
<g clip-path="url(#clip0_2531_2460)">
<path d="M186.044 72.21C186.044 40.1197 209.115 15.7256 240.814 15.7256C268.866 15.7256 287.846 32.8404 294.498 55.4008H275.072C270.981 41.4811 258.987 30.7288 240.34 30.7288C218.8 30.7288 203.326 46.9268 203.326 72.5156C203.326 96.6041 218.049 114.775 242.316 114.775C262.493 114.775 275.239 102.355 278.273 83.7402H240.647V70.404H295.862C296.474 105.245 275.072 129 241.704 129C210.312 129 186.044 105.217 186.044 72.21Z" fill="#12161D"/>
<path d="M356.225 114.302C351.216 123.249 342.282 128.222 330.427 128.222C313.729 128.222 302.819 118.692 302.819 103.995C302.819 88.2412 315.399 80.0728 339.388 80.0728C344.091 80.0728 347.876 80.2117 354.416 80.9896V75.0995C354.416 63.597 348.21 57.0678 337.579 57.0678C326.364 57.0678 319.517 63.7359 319.072 74.9328H305.129C305.881 56.9011 318.794 44.9541 337.579 44.9541C357.45 44.9541 368.972 56.151 368.972 75.2384V126.722H356.225V114.302ZM333.46 117.331C346.346 117.331 354.389 109.301 354.389 97.0487V90.5473C348.461 89.7971 344.231 89.6304 340.279 89.6304C324.972 89.6304 317.374 94.1591 317.374 103.55C317.374 111.885 323.581 117.331 333.46 117.331Z" fill="#12161D"/>
<path d="M429.474 125.36C424.77 127.472 420.679 128.25 415.809 128.25C400.948 128.25 390.623 120.22 390.623 102.494V59.485H372.867V46.4544H390.623V22.6715H405.929V46.4544H430.197V59.485H405.929V99.0213C405.929 110.079 411.245 114.025 419.427 114.025C423.073 114.025 426.245 113.413 429.446 111.913V125.388L429.474 125.36Z" fill="#12161D"/>
<path d="M455.551 126.722H440.244V17.9761H455.551V59.3183C460.866 50.6776 469.048 44.9263 480.125 44.9263C496.656 44.9263 507.593 55.5397 507.593 74.7661V126.722H492.286V79.9339C492.286 66.1531 486.219 58.4292 474.837 58.4292C464.373 58.4292 455.579 67.2089 455.579 81.462V126.749L455.551 126.722Z" fill="#12161D"/>
<path d="M517.584 86.1296C517.584 62.3467 533.809 44.9263 555.962 44.9263C579.923 44.9263 595.842 64.3193 593.115 90.3527H533.197C534.421 106.717 542.603 116.247 556.101 116.247C567.483 116.247 575.359 110.024 577.947 99.5769H593.115C589.163 117.442 575.359 128.194 556.407 128.194C533.197 128.194 517.584 111.385 517.584 86.1018V86.1296ZM533.364 80.2116H576.89C576.139 65.3751 568.096 56.4287 555.656 56.4287C543.216 56.4287 535.033 65.2084 533.364 80.2116Z" fill="#12161D"/>
<path d="M620.11 126.722H604.804V46.4544H619.053V63.4025C624.674 52.3446 636.808 45.3708 650 45.3708V61.2632C632.717 60.3463 620.11 67.9313 620.11 85.6573V126.694V126.722Z" fill="#12161D"/>
<path d="M86.9973 23.116C92.6228 23.116 97.1832 18.5633 97.1832 12.9472C97.1832 7.33107 92.6228 2.77832 86.9973 2.77832C81.3719 2.77832 76.8115 7.33107 76.8115 12.9472C76.8115 18.5633 81.3719 23.116 86.9973 23.116Z" fill="#12161D"/>
<path d="M10.1858 20.3377C15.8113 20.3377 20.3716 15.785 20.3716 10.1689C20.3716 4.55275 15.8113 0 10.1858 0C4.56035 0 0 4.55275 0 10.1689C0 15.785 4.56035 20.3377 10.1858 20.3377Z" fill="#12161D"/>
<path d="M78.4534 126.444C84.0789 126.444 88.6392 121.891 88.6392 116.275C88.6392 110.659 84.0789 106.106 78.4534 106.106C72.8279 106.106 68.2676 110.659 68.2676 116.275C68.2676 121.891 72.8279 126.444 78.4534 126.444Z" fill="#12161D"/>
<path d="M127.991 42.8703C133.616 42.8703 138.176 38.3176 138.176 32.7015C138.176 27.0853 133.616 22.5326 127.991 22.5326C122.365 22.5326 117.805 27.0853 117.805 32.7015C117.805 38.3176 122.365 42.8703 127.991 42.8703Z" fill="#12161D"/>
<path d="M71.3011 61.9578C76.9265 61.9578 81.4869 57.4051 81.4869 51.789C81.4869 46.1729 76.9265 41.6201 71.3011 41.6201C65.6756 41.6201 61.1152 46.1729 61.1152 51.789C61.1152 57.4051 65.6756 61.9578 71.3011 61.9578Z" fill="#12161D"/>
<path d="M23.2102 79.2393C28.8357 79.2393 33.3961 74.6866 33.3961 69.0705C33.3961 63.4544 28.8357 58.9016 23.2102 58.9016C17.5848 58.9016 13.0244 63.4544 13.0244 69.0705C13.0244 74.6866 17.5848 79.2393 23.2102 79.2393Z" fill="#12161D"/>
<path d="M131.943 98.0211C137.568 98.0211 142.128 93.4683 142.128 87.8522C142.128 82.2361 137.568 77.6833 131.943 77.6833C126.317 77.6833 121.757 82.2361 121.757 87.8522C121.757 93.4683 126.317 98.0211 131.943 98.0211Z" fill="#12161D"/>
</g>
<defs>
<clipPath id="clip0_2531_2460">
<rect width="650" height="129" fill="white"/>
</clipPath>
</defs>
</svg>
