<svg width="667" height="127" viewBox="0 0 667 127" fill="none" xmlns="http://www.w3.org/2000/svg">
<g clip-path="url(#clip0_2531_643)">
<path d="M58.9261 0C26.3912 0 0 26.5693 0 59.3239C0 92.0784 26.3912 118.648 58.9261 118.648C91.4611 118.648 117.852 92.0784 117.852 59.3239C117.852 26.5693 91.4835 0 58.9261 0ZM46.2575 84.3582C46.5938 84.7193 47.2889 84.9902 48.3428 85.1934L50.0917 85.4869C50.742 85.6449 51.0783 85.9383 51.0783 86.4124C51.0783 86.9767 50.6971 87.2476 49.9347 87.2476H36.1674C35.405 87.2476 35.0238 86.9767 35.0238 86.4124C35.0238 85.9609 35.3602 85.6449 36.0104 85.4869L37.7594 85.1934C38.8132 84.9902 39.5307 84.7193 39.8447 84.3582C40.181 83.997 40.3379 83.2746 40.3379 82.2137V37.2016C40.3379 36.1406 40.181 35.4182 39.8447 35.0571C39.5083 34.6959 38.8132 34.425 37.7594 34.2218L36.0104 33.9058C35.3602 33.7478 35.0238 33.4543 35.0238 32.9803C35.0238 32.4159 35.405 32.145 36.1674 32.145H49.9347C50.6971 32.145 51.0783 32.4159 51.0783 32.9803C51.0783 33.4317 50.742 33.7478 50.0917 33.9058L48.3428 34.2218C47.2889 34.425 46.5714 34.6959 46.2575 35.0571C45.9436 35.4182 45.7642 36.118 45.7642 37.2016V82.2137C45.7642 83.2746 45.9211 83.997 46.2575 84.3582ZM84.9362 47.9015C84.3308 47.9015 83.972 47.5629 83.8599 46.9083L83.4787 44.38C83.0751 41.7163 82.3576 39.6621 81.3486 38.1722C80.3396 36.6824 79.196 35.644 77.9179 34.9893C76.6399 34.3573 75.429 34.0412 74.2631 34.0412C72.0433 34.0412 70.5185 34.4024 69.7113 35.1022C68.9041 35.8246 68.5005 36.9081 68.5005 38.398V56.457C68.5005 57.1794 68.8593 57.518 69.5544 57.518H72.2226C74.4425 57.518 75.8102 56.3215 76.326 53.9287L77.1556 50.0912C77.3125 49.4366 77.6937 49.0979 78.2991 49.0979C78.9045 49.0979 79.2184 49.5268 79.2184 50.4072V67.631C79.2184 68.4888 78.9045 68.9403 78.2991 68.9403C77.6937 68.9403 77.3125 68.6017 77.1556 67.947L76.326 64.1998C75.9672 62.4165 75.4739 61.2426 74.8461 60.6783C74.2182 60.1139 73.3213 59.8431 72.1554 59.8431H69.5768C68.8593 59.8431 68.5229 60.2042 68.5229 60.9266V81.8299C68.5229 82.8909 68.6799 83.6584 69.0162 84.0873C69.3526 84.5162 70.0477 84.8096 71.1015 84.9677L74.6667 85.5094C75.2272 85.6223 75.4963 85.8932 75.4963 86.3447C75.4963 86.9541 75.1151 87.2702 74.3528 87.2702H58.9261C58.1638 87.2702 57.7826 86.9993 57.7826 86.435C57.7826 85.9835 58.1189 85.6674 58.7692 85.5094L60.5181 85.216C61.572 85.0128 62.2895 84.7419 62.6034 84.3807C62.9398 84.0196 63.0967 83.2972 63.0967 82.2362V37.2241C63.0967 36.1632 62.9398 35.4408 62.6034 35.0796C62.2671 34.7185 61.572 34.4476 60.5181 34.2444L58.7692 33.9284C58.1189 33.7704 57.7826 33.4769 57.7826 33.0028C57.7826 32.4385 58.1638 32.1676 58.9261 32.1676H83.4114C84.5774 32.1676 85.2052 32.7545 85.3173 33.9284L85.9227 46.6374C86.0124 47.4952 85.6985 47.9467 84.9362 47.9467V47.9015Z" fill="#12161D"/>
<path d="M139.221 57.6083C139.221 31.513 157.809 11.7158 183.348 11.7158C205.95 11.7158 221.242 25.6213 226.601 43.9512H210.95C207.654 32.6417 197.99 23.9057 182.967 23.9057C165.612 23.9057 153.145 37.0662 153.145 57.8566C153.145 77.428 165.006 92.1913 184.559 92.1913C200.815 92.1913 211.085 82.1008 213.529 66.9764H183.214V56.141H227.7C228.193 84.4485 210.95 103.749 184.066 103.749C158.773 103.749 139.221 84.4259 139.221 57.6083Z" fill="#12161D"/>
<path d="M276.334 91.8076C272.298 99.0764 265.101 103.117 255.549 103.117C242.095 103.117 233.306 95.3743 233.306 83.4327C233.306 70.6334 243.441 63.9967 262.769 63.9967C266.558 63.9967 269.608 64.1096 274.877 64.7417V59.9335C274.877 50.5879 269.877 45.2831 261.311 45.2831C252.275 45.2831 246.759 50.7008 246.4 59.798H235.167C235.772 45.1476 246.176 35.4409 261.311 35.4409C277.321 35.4409 286.604 44.5381 286.604 60.0463V101.876H276.334V91.785V91.8076ZM257.993 94.2682C268.374 94.2682 274.854 87.7443 274.854 77.7893V72.507C270.101 71.8975 266.67 71.7621 263.486 71.7621C251.154 71.7621 245.033 75.4642 245.033 83.0716C245.033 89.8437 250.033 94.2682 257.993 94.2682Z" fill="#12161D"/>
<path d="M335.349 100.792C331.56 102.508 328.264 103.14 324.34 103.14C312.366 103.14 304.048 96.6159 304.048 82.2138V47.2696H289.742V36.6825H304.048V17.3594H316.38V36.6825H335.932V47.2696H316.38V79.3921C316.38 88.3764 320.663 91.5819 327.255 91.5819C330.192 91.5819 332.748 91.0853 335.327 89.8663V100.815L335.349 100.792Z" fill="#12161D"/>
<path d="M356.382 101.898H344.05V13.5444H356.382V47.1342C360.665 40.1138 367.257 35.441 376.181 35.441C389.5 35.441 398.312 44.0642 398.312 59.6852V101.876H385.98V63.8614C385.98 52.6648 381.092 46.3893 371.921 46.3893C363.49 46.3893 356.405 53.5226 356.405 65.0803V101.876L356.382 101.898Z" fill="#12161D"/>
<path d="M406.339 68.9178C406.339 49.5947 419.411 35.4409 437.259 35.4409C456.565 35.4409 469.391 51.1974 467.193 72.349H418.918C419.904 85.645 426.497 93.3878 437.372 93.3878C446.542 93.3878 452.888 88.3538 454.973 79.8435H467.193C464.009 94.3584 452.888 103.094 437.618 103.094C418.918 103.094 406.339 89.4374 406.339 68.8952V68.9178ZM419.052 64.1096H454.121C453.516 52.0552 447.036 44.7865 437.013 44.7865C426.99 44.7865 420.398 51.9198 419.052 64.1096Z" fill="#12161D"/>
<path d="M488.966 101.898H476.634V36.6826H488.114V50.4526C492.643 41.4683 502.42 35.8022 513.048 35.8022V48.7144C499.123 47.9695 488.966 54.1321 488.966 68.5342V101.876V101.898Z" fill="#12161D"/>
<path d="M525.245 29.7972C519.998 29.7972 516.209 26.2306 516.209 21.5578C516.209 16.885 519.998 13.3184 525.245 13.3184C530.492 13.3184 534.169 16.7721 534.169 21.5578C534.169 26.3434 530.514 29.7972 525.245 29.7972ZM519.146 101.898V36.6822H531.479V101.898H519.146Z" fill="#12161D"/>
<path d="M557.265 101.898H544.933V36.6824H556.413V47.5178C560.808 40.249 568.14 35.4634 577.064 35.4634C590.383 35.4634 599.195 44.0866 599.195 59.7076V101.898H586.863V63.8837C586.863 52.6872 581.974 46.4117 572.804 46.4117C564.373 46.4117 557.287 53.545 557.287 65.1027V101.898H557.265Z" fill="#12161D"/>
<path d="M609.083 103.117H621.056C621.796 112.214 627.649 117.135 637.671 117.135C648.793 117.135 654.668 111.108 654.668 99.9116V88.1055C651.013 95.9837 643.658 100.521 634.869 100.521C618.747 100.521 607.244 87.1123 607.244 67.9246C607.244 48.7369 618.254 35.4409 634.487 35.4409C643.77 35.4409 651.102 40.0008 655.52 48.2402V36.6825H667V99.6859C667 116.797 656.125 127 637.783 127C620.787 127 609.8 117.903 609.06 103.14L609.083 103.117ZM637.066 89.7082C647.582 89.7082 654.668 81.2205 654.668 68.3083C654.668 55.3961 647.694 46.1635 637.066 46.1635C626.438 46.1635 619.711 54.5383 619.711 67.9471C619.711 81.356 626.303 89.7308 637.066 89.7308V89.7082Z" fill="#12161D"/>
</g>
<defs>
<clipPath id="clip0_2531_643">
<rect width="667" height="127" fill="white"/>
</clipPath>
</defs>
</svg>
