<svg width="415" height="78" viewBox="0 0 415 78" fill="none" xmlns="http://www.w3.org/2000/svg">
<g clip-path="url(#clip0_2531_408)">
<path d="M36.6632 0C16.4203 0 0 16.3182 0 36.4351C0 56.5521 16.4203 72.8703 36.6632 72.8703C56.9061 72.8703 73.3264 56.5521 73.3264 36.4351C73.3264 16.3182 56.92 0 36.6632 0ZM28.7809 51.8105C28.9901 52.0324 29.4226 52.1987 30.0783 52.3235L31.1665 52.5037C31.5711 52.6008 31.7803 52.781 31.7803 53.0722C31.7803 53.4188 31.5432 53.5851 31.0688 53.5851H22.5029C22.0286 53.5851 21.7914 53.4188 21.7914 53.0722C21.7914 52.7949 22.0007 52.6008 22.4053 52.5037L23.4935 52.3235C24.1492 52.1987 24.5956 52.0324 24.7909 51.8105C25.0002 51.5887 25.0978 51.145 25.0978 50.4934V22.8482C25.0978 22.1966 25.0002 21.7529 24.7909 21.5311C24.5816 21.3093 24.1492 21.1429 23.4935 21.0181L22.4053 20.824C22.0007 20.727 21.7914 20.5467 21.7914 20.2556C21.7914 19.909 22.0286 19.7426 22.5029 19.7426H31.0688C31.5432 19.7426 31.7803 19.909 31.7803 20.2556C31.7803 20.5329 31.5711 20.727 31.1665 20.824L30.0783 21.0181C29.4226 21.1429 28.9762 21.3093 28.7809 21.5311C28.5856 21.7529 28.474 22.1827 28.474 22.8482V50.4934C28.474 51.145 28.5716 51.5887 28.7809 51.8105ZM52.8463 29.4198C52.4697 29.4198 52.2464 29.2119 52.1767 28.8098L51.9395 27.257C51.6884 25.621 51.242 24.3594 50.6142 23.4444C49.9864 22.5293 49.2749 21.8916 48.4797 21.4895C47.6845 21.1013 46.9311 20.9072 46.2057 20.9072C44.8245 20.9072 43.8758 21.129 43.3736 21.5588C42.8714 22.0025 42.6203 22.668 42.6203 23.583V34.6744C42.6203 35.118 42.8435 35.326 43.276 35.326H44.9361C46.3173 35.326 47.1683 34.5912 47.4892 33.1216L48.0053 30.7647C48.103 30.3626 48.3402 30.1546 48.7168 30.1546C49.0935 30.1546 49.2888 30.4181 49.2888 30.9588V41.5372C49.2888 42.064 49.0935 42.3413 48.7168 42.3413C48.3402 42.3413 48.103 42.1333 48.0053 41.7313L47.4892 39.4298C47.2659 38.3345 46.959 37.6136 46.5684 37.267C46.1778 36.9204 45.6197 36.754 44.8943 36.754H43.2899C42.8435 36.754 42.6342 36.9758 42.6342 37.4195V50.2577C42.6342 50.9094 42.7319 51.3807 42.9411 51.6442C43.1504 51.9076 43.5829 52.0878 44.2386 52.1849L46.4568 52.5176C46.8056 52.5869 46.973 52.7533 46.973 53.0306C46.973 53.4049 46.7358 53.599 46.2615 53.599H36.6632C36.1889 53.599 35.9517 53.4326 35.9517 53.086C35.9517 52.8088 36.1609 52.6147 36.5655 52.5176L37.6537 52.3374C38.3094 52.2126 38.7558 52.0462 38.9511 51.8244C39.1604 51.6026 39.2581 51.1589 39.2581 50.5073V22.8621C39.2581 22.2105 39.1604 21.7668 38.9511 21.545C38.7419 21.3231 38.3094 21.1568 37.6537 21.032L36.5655 20.8379C36.1609 20.7408 35.9517 20.5606 35.9517 20.2695C35.9517 19.9229 36.1889 19.7565 36.6632 19.7565H51.8977C52.6231 19.7565 53.0137 20.117 53.0835 20.8379L53.4602 28.6434C53.516 29.1703 53.3207 29.4476 52.8463 29.4476V29.4198Z" fill="#FFFAF0"/>
<path d="M86.6221 35.3812C86.6221 19.3542 98.1874 7.19531 114.078 7.19531C128.14 7.19531 137.655 15.7357 140.989 26.9934H131.251C129.2 20.0474 123.188 14.682 113.84 14.682C103.042 14.682 95.2856 22.7648 95.2856 35.5337C95.2856 47.554 102.666 56.6212 114.831 56.6212C124.945 56.6212 131.335 50.4239 132.856 41.1349H113.994V34.4801H141.673C141.98 51.8658 131.251 63.7197 114.524 63.7197C98.7873 63.7197 86.6221 51.8519 86.6221 35.3812Z" fill="#FFFAF0"/>
<path d="M171.932 56.3855C169.421 60.8498 164.943 63.3315 159 63.3315C150.629 63.3315 145.16 58.5761 145.16 51.2419C145.16 43.3809 151.466 39.3048 163.492 39.3048C165.849 39.3048 167.747 39.3741 171.025 39.7623V36.8093C171.025 31.0695 167.914 27.8114 162.585 27.8114C156.963 27.8114 153.531 31.1388 153.308 36.7261H146.318C146.695 27.7282 153.168 21.7666 162.585 21.7666C172.546 21.7666 178.322 27.3539 178.322 36.8786V62.569H171.932V56.3717V56.3855ZM160.52 57.8967C166.979 57.8967 171.011 53.89 171.011 47.7758V44.5316C168.054 44.1573 165.919 44.0741 163.938 44.0741C156.265 44.0741 152.457 46.3478 152.457 51.0201C152.457 55.1793 155.568 57.8967 160.52 57.8967Z" fill="#FFFAF0"/>
<path d="M208.652 61.9032C206.294 62.9569 204.243 63.3451 201.802 63.3451C194.352 63.3451 189.176 59.3383 189.176 50.493V29.0312H180.275V22.5289H189.176V10.6611H196.849V22.5289H209.014V29.0312H196.849V48.76C196.849 54.2779 199.514 56.2466 203.615 56.2466C205.443 56.2466 207.033 55.9416 208.638 55.193V61.9171L208.652 61.9032Z" fill="#FFFAF0"/>
<path d="M221.737 62.5828H214.064V8.31836H221.737V28.9483C224.402 24.6365 228.504 21.7666 234.056 21.7666C242.343 21.7666 247.826 27.0628 247.826 36.6568V62.569H240.153V39.2217C240.153 32.345 237.111 28.4908 231.406 28.4908C226.16 28.4908 221.751 32.8719 221.751 39.9703V62.569L221.737 62.5828Z" fill="#FFFAF0"/>
<path d="M252.82 42.3272C252.82 30.4595 260.954 21.7666 272.059 21.7666C284.071 21.7666 292.05 31.4438 290.683 44.4346H260.647C261.261 52.6006 265.362 57.356 272.128 57.356C277.834 57.356 281.783 54.2643 283.08 49.0375H290.683C288.702 57.9522 281.783 63.3176 272.282 63.3176C260.647 63.3176 252.82 54.9298 252.82 42.3134V42.3272ZM260.731 39.3741H282.55C282.173 31.9707 278.141 27.5064 271.905 27.5064C265.669 27.5064 261.568 31.8875 260.731 39.3741Z" fill="#FFFAF0"/>
<path d="M304.23 62.5827H296.557V22.529H303.7V30.9861C306.518 25.4682 312.6 21.9883 319.213 21.9883V29.9186C310.549 29.4611 304.23 33.246 304.23 42.0914V62.5688V62.5827Z" fill="#FFFAF0"/>
<path d="M326.802 18.3006C323.537 18.3006 321.18 16.11 321.18 13.2401C321.18 10.3702 323.537 8.17969 326.802 8.17969C330.066 8.17969 332.354 10.3009 332.354 13.2401C332.354 16.1793 330.08 18.3006 326.802 18.3006ZM323.007 62.5828V22.5291H330.68V62.5828H323.007Z" fill="#FFFAF0"/>
<path d="M346.724 62.5826H339.051V22.5289H346.194V29.1838C348.928 24.7195 353.49 21.7803 359.043 21.7803C367.329 21.7803 372.812 27.0764 372.812 36.6704V62.5826H365.139V39.2353C365.139 32.3587 362.098 28.5044 356.392 28.5044C351.146 28.5044 346.738 32.8855 346.738 39.984V62.5826H346.724Z" fill="#FFFAF0"/>
<path d="M378.965 63.3315H386.415C386.875 68.9188 390.517 71.9411 396.753 71.9411C403.672 71.9411 407.328 68.2394 407.328 61.3628V54.1118C405.054 58.9504 400.478 61.7371 395.009 61.7371C384.978 61.7371 377.821 53.5018 377.821 41.7172C377.821 29.9326 384.671 21.7666 394.772 21.7666C400.547 21.7666 405.109 24.5672 407.858 29.6276V22.5291H415.001V61.2241C415.001 71.7332 408.234 77.9998 396.823 77.9998C386.248 77.9998 379.412 72.4125 378.951 63.3453L378.965 63.3315ZM396.376 55.0961C402.919 55.0961 407.328 49.8832 407.328 41.9529C407.328 34.0226 402.989 28.3521 396.376 28.3521C389.763 28.3521 385.578 33.4957 385.578 41.7311C385.578 49.9664 389.68 55.11 396.376 55.11V55.0961Z" fill="#FFFAF0"/>
</g>
<defs>
<clipPath id="clip0_2531_408">
<rect width="415" height="78" fill="white"/>
</clipPath>
</defs>
</svg>
